<?xml version="1.0" encoding="UTF-8"?>
<svg width="30px" height="30px" viewBox="0 0 30 30" version="1.1" xmlns="http://www.w3.org/2000/svg" xmlns:xlink="http://www.w3.org/1999/xlink">
    <!-- Generator: Sketch 58 (84663) - https://sketch.com -->
    <title>Shape</title>
    <desc>Created with Sketch.</desc>
    <g id="Page-1" stroke="none" stroke-width="1" fill="none" fill-rule="evenodd">
        <path d="M20.7575473,12.8628104 C21.065856,12.5545018 21.5657229,12.5545018 21.8740317,12.8628104 C22.1823403,13.1711192 22.1823403,13.6709861 21.8740317,13.9792948 L15.5582422,20.2950843 C15.2499335,20.6033929 14.7500665,20.6033929 14.4417578,20.2950843 L8.12596833,13.9792948 C7.81765967,13.6709861 7.81765967,13.1711192 8.12596833,12.8628104 C8.43427699,12.5545018 8.93414406,12.5545018 9.24245272,12.8628104 L15,18.6203577 L20.7575473,12.8628104 Z M28.4210526,15 C28.4210526,7.5870669 22.4129331,1.57894737 15,1.57894737 C7.5870669,1.57894737 1.57894737,7.5870669 1.57894737,15 C1.57894737,22.4129331 7.5870669,28.4210526 15,28.4210526 C22.4129331,28.4210526 28.4210526,22.4129331 28.4210526,15 Z M30,15 C30,23.2849617 23.2849617,30 15,30 C6.71503836,30 0,23.2849617 0,15 C0,6.71503836 6.71503836,0 15,0 C23.2849617,0 30,6.71503836 30,15 Z" id="Shape" fill="#0069E2" fill-rule="nonzero" transform="translate(15.000000, 15.000000) rotate(-180.000000) translate(-15.000000, -15.000000) "></path>
    </g>
</svg>