<?xml version="1.0" encoding="UTF-8"?>
<svg width="19px" height="19px" viewBox="0 0 19 19" version="1.1" xmlns="http://www.w3.org/2000/svg" xmlns:xlink="http://www.w3.org/1999/xlink">
    <!-- Generator: Sketch 58 (84663) - https://sketch.com -->
    <title>chevron_down</title>
    <desc>Created with Sketch.</desc>
    <g id="Page-1" stroke="none" stroke-width="1" fill="none" fill-rule="evenodd">
        <g id="chevron_down" fill="#5B5B5B" fill-rule="nonzero">
            <path d="M13.1464466,8.1464466 C13.3417088,7.95118446 13.6582912,7.95118446 13.8535534,8.1464466 C14.0488155,8.3417088 14.0488155,8.6582912 13.8535534,8.8535534 L9.8535534,12.8535534 C9.6582912,13.0488155 9.3417088,13.0488155 9.1464466,12.8535534 L5.14644661,8.8535534 C4.95118446,8.6582912 4.95118446,8.3417088 5.14644661,8.1464466 C5.34170876,7.95118446 5.65829124,7.95118446 5.85355339,8.1464466 L9.5,11.7928932 L13.1464466,8.1464466 Z M18,9.5 C18,4.80514237 14.1948576,1 9.5,1 C4.80514237,1 1,4.80514237 1,9.5 C1,14.1948576 4.80514237,18 9.5,18 C14.1948576,18 18,14.1948576 18,9.5 Z M19,9.5 C19,14.7471424 14.7471424,19 9.5,19 C4.25285763,19 0,14.7471424 0,9.5 C0,4.25285763 4.25285763,0 9.5,0 C14.7471424,0 19,4.25285763 19,9.5 Z" id="Shape"></path>
        </g>
    </g>
</svg>